<?xml version="1.0" encoding="UTF-8" standalone="no"?>
<!-- Created with Inkscape (http://www.inkscape.org/) -->

<svg
   xmlns:dc="http://purl.org/dc/elements/1.1/"
   xmlns:cc="http://creativecommons.org/ns#"
   xmlns:rdf="http://www.w3.org/1999/02/22-rdf-syntax-ns#"
   xmlns:svg="http://www.w3.org/2000/svg"
   xmlns="http://www.w3.org/2000/svg"
   xmlns:sodipodi="http://sodipodi.sourceforge.net/DTD/sodipodi-0.dtd"
   xmlns:inkscape="http://www.inkscape.org/namespaces/inkscape"
   width="550"
   height="450"
   viewBox="0 0 145.52083 119.0625"
   version="1.1"
   id="svg8"
   inkscape:version="0.92.4 (5da689c313, 2019-01-14)"
   sodipodi:docname="finalTest.svg">
  <defs
     id="defs2" />
  <sodipodi:namedview
     id="base"
     pagecolor="#ffffff"
     bordercolor="#666666"
     borderopacity="1.0"
     inkscape:pageopacity="0.0"
     inkscape:pageshadow="2"
     inkscape:zoom="0.35"
     inkscape:cx="389.37322"
     inkscape:cy="499.91094"
     inkscape:document-units="mm"
     inkscape:current-layer="layer1"
     showgrid="false"
     units="px"
     inkscape:window-width="1920"
     inkscape:window-height="1013"
     inkscape:window-x="-9"
     inkscape:window-y="-9"
     inkscape:window-maximized="1" />
  <metadata
     id="metadata5">
    <rdf:RDF>
      <cc:Work
         rdf:about="">
        <dc:format>image/svg+xml</dc:format>
        <dc:type
           rdf:resource="http://purl.org/dc/dcmitype/StillImage" />
        <dc:title></dc:title>
      </cc:Work>
    </rdf:RDF>
  </metadata>
  <g
     inkscape:label="Layer 1"
     inkscape:groupmode="layer"
     id="layer1"
     transform="translate(0,-177.93748)">
    <path
       style="fill:#000000;stroke-width:0.1671147"
       d="m 29.171613,263.09375 c -0.792478,-0.30525 -1.649395,-1.12654 -1.867,-1.78937 -0.132391,-0.40327 -0.174403,-7.51446 -0.137871,-23.33694 l 0.05254,-22.75693 0.429031,-0.55166 c 0.235967,-0.30341 0.710784,-0.72176 1.055149,-0.92967 l 0.626118,-0.37801 40.159775,-0.0427 c 44.807665,-0.0477 41.039795,-0.14232 42.274805,1.06214 0.34341,0.33492 0.6719,0.84256 0.72999,1.12811 0.0581,0.28554 0.0826,10.72449 0.0546,23.19767 l -0.0511,22.6785 -0.42448,0.54581 c -0.23347,0.30019 -0.71416,0.71855 -1.06821,0.92967 l -0.64371,0.38386 -40.324757,0.0338 c -33.172014,0.0278 -40.420563,-0.003 -40.864903,-0.17426 z m 81.064977,-0.78582 c 0.26441,-0.12122 0.68103,-0.40926 0.92583,-0.64009 l 0.44508,-0.41968 0.0463,-22.78573 0.0463,-22.78572 -0.40589,-0.53531 c -0.22323,-0.29442 -0.68469,-0.65874 -1.02544,-0.80959 -0.58435,-0.25867 -2.88659,-0.27425 -40.499245,-0.27392 -39.479811,3.4e-4 -39.885485,0.003 -40.459906,0.31205 -0.319131,0.17144 -0.739895,0.54177 -0.93503,0.82295 -0.350627,0.50525 -0.354266,0.77862 -0.309933,23.27943 0.04437,22.51758 0.04878,22.77206 0.400928,23.12082 0.195838,0.19395 0.596415,0.48345 0.890171,0.64332 0.515822,0.28074 1.900899,0.29071 40.46712,0.29127 33.949915,4.7e-4 40.005055,-0.0324 40.413775,-0.2198 z"
       id="path837"
       inkscape:connector-curvature="0" />
  </g>
</svg>
