<?xml version="1.0" encoding="UTF-8" standalone="no"?>
<!-- Created with Inkscape (http://www.inkscape.org/) -->

<svg
   xmlns:dc="http://purl.org/dc/elements/1.1/"
   xmlns:cc="http://creativecommons.org/ns#"
   xmlns:rdf="http://www.w3.org/1999/02/22-rdf-syntax-ns#"
   xmlns:svg="http://www.w3.org/2000/svg"
   xmlns="http://www.w3.org/2000/svg"
   xmlns:sodipodi="http://sodipodi.sourceforge.net/DTD/sodipodi-0.dtd"
   xmlns:inkscape="http://www.inkscape.org/namespaces/inkscape"
   width="5.5in"
   height="4.5in"
   viewBox="0 0 139.7 114.3"
   version="1.1"
   id="svg8"
   inkscape:version="0.92.4 (5da689c313, 2019-01-14)"
   sodipodi:docname="drawingwithdimension.svg">
  <defs
     id="defs2" />
  <sodipodi:namedview
     id="base"
     pagecolor="#ffffff"
     bordercolor="#666666"
     borderopacity="1.0"
     inkscape:pageopacity="0.0"
     inkscape:pageshadow="2"
     inkscape:zoom="0.35"
     inkscape:cx="400"
     inkscape:cy="102.85714"
     inkscape:document-units="mm"
     inkscape:current-layer="layer1"
     showgrid="false"
     units="in"
     inkscape:window-width="1383"
     inkscape:window-height="1003"
     inkscape:window-x="527"
     inkscape:window-y="0"
     inkscape:window-maximized="0" />
  <metadata
     id="metadata5">
    <rdf:RDF>
      <cc:Work
         rdf:about="">
        <dc:format>image/svg+xml</dc:format>
        <dc:type
           rdf:resource="http://purl.org/dc/dcmitype/StillImage" />
        <dc:title></dc:title>
      </cc:Work>
    </rdf:RDF>
  </metadata>
  <g
     inkscape:label="Layer 1"
     inkscape:groupmode="layer"
     id="layer1"
     transform="translate(0,-182.69998)">
    <path
       style="fill:#000000;stroke-width:0.10666098"
       d="m 69.084827,276.52657 c -2.82481,-0.20697 -5.81064,-0.64855 -7.67937,-1.13571 -5.49054,-1.43134 -9.94648,-3.56094 -14.37139,-6.86843 -1.41934,-1.06092 -4.9025,-4.38349 -5.99196,-5.71571 -4.48335,-5.48234 -7.03274,-11.20052 -7.99851,-17.9403 -0.23939,-1.67062 -0.33258,-5.73126 -0.17135,-7.46648 0.67882,-7.30576 3.29116,-13.61553 8.05008,-19.44397 1.41362,-1.7313 4.71953,-4.85725 6.52895,-6.17353 2.4945,-1.81465 4.33313,-2.89186 7.07423,-4.14465 4.54744,-2.07834 8.85412,-3.14003 14.33991,-3.5351 4.24495,-0.30571 9.47757,0.32954 13.93257,1.69143 14.054735,4.29654 24.217813,15.76122 26.270933,29.6355 0.89162,6.0253 0.10233,12.22261 -2.30764,18.11896 -2.09203,5.11845 -5.84598,10.19554 -10.225899,13.83018 -5.621154,4.66466 -11.925484,7.51361 -19.243554,8.69622 -2.49237,0.40277 -6.13652,0.60329 -8.207,0.45159 z m 4.93674,-3.55843 c 11.00342,-0.90026 20.940323,-6.73912 26.668073,-15.67 2.55979,-3.99129 4.06523,-8.03597 4.78153,-12.84653 0.2724,-1.82938 0.2724,-6.4667 0,-8.29608 -0.60856,-4.08698 -1.89465,-7.88844 -3.82414,-11.30343 -0.69989,-1.23874 -2.578084,-3.92279 -3.555731,-5.08136 -1.191112,-1.41154 -4.331809,-4.31145 -5.858652,-5.40948 -5.08507,-3.65695 -10.24347,-5.68723 -16.73006,-6.58474 -1.87194,-0.25901 -6.89622,-0.26004 -8.83126,-0.002 -6.6211,0.88358 -12.20231,3.15465 -17.44315,7.09786 -1.35613,1.02035 -3.9838,3.51834 -5.15246,4.89817 -4.14758,4.89702 -6.73724,10.82572 -7.47395,17.11069 -0.18117,1.54558 -0.18261,5.32093 -0.003,6.84428 0.74716,6.32347 3.30567,12.17201 7.49417,17.13108 1.17923,1.39617 3.77931,3.84839 5.29942,4.99805 5.34949,4.04581 11.7819,6.51036 18.54019,7.1036 1.4217,0.12479 4.61964,0.12989 6.08864,0.01 z m -1.42617,-10.1249 c -1.87306,-0.26592 -3.32038,-0.68485 -3.62319,-1.04874 -0.29646,-0.35626 -0.28013,-0.86543 0.0368,-1.14685 0.13929,-0.1237 0.59594,-0.33548 1.01477,-0.47063 2.7664,-0.89267 6.06292,-2.52363 8.67972,-4.2943 1.66268,-1.12506 2.91669,-2.12546 4.49889,-3.58901 0.73527,-0.68014 1.40173,-1.2755 1.48102,-1.32303 0.44065,-0.26414 1.11262,0.0632 1.25864,0.61315 0.0412,0.15521 0.0186,0.70395 -0.0503,1.21943 -0.68643,5.13736 -4.84169,9.1836 -10.22457,9.95633 -0.9607,0.13791 -2.4113,0.17741 -3.07174,0.0837 z m -15.46844,-16.63106 c -0.90205,-0.30675 -1.73315,-0.97817 -2.24896,-1.81687 -0.53829,-0.87526 -0.95768,-1.28261 -1.65711,-1.60956 -0.52978,-0.24765 -0.5725,-0.2506 -3.17833,-0.21953 -2.31083,0.0275 -2.65952,0.0108 -2.7866,-0.13395 -0.21222,-0.24172 0.0183,-0.58868 0.80271,-1.20826 2.32531,-1.83664 6.15713,-2.87713 10.19422,-2.76814 1.33349,0.036 1.50573,0.0638 2.10798,0.33998 1.72048,0.789 2.72038,2.61392 2.36806,4.32194 -0.27599,1.33794 -1.15925,2.43093 -2.4013,2.97149 -0.84824,0.36916 -2.31129,0.42534 -3.20067,0.1229 z m 32.07002,0.0152 c -1.08762,-0.3815 -1.89847,-1.06174 -2.4257,-2.03498 -0.28184,-0.52024 -0.9179,-1.09722 -1.55977,-1.41489 -0.48432,-0.23969 -0.54322,-0.24373 -3.10861,-0.21311 -2.65389,0.0317 -2.92518,-0.001 -2.92518,-0.35472 0,-0.46522 2.05752,-1.92822 3.52263,-2.50476 2.17529,-0.85602 4.12405,-1.19419 6.95422,-1.2068 l 2.0844,-0.009 0.65584,0.30391 c 1.680494,0.7787 2.692256,2.60124 2.369748,4.26873 -0.264594,1.36805 -1.098035,2.41506 -2.402768,3.01847 -0.82121,0.37979 -2.30529,0.44892 -3.16481,0.14743 z m -44.24345,-8.09472 c -0.18133,-0.32027 -0.13195,-1.35707 0.10696,-2.24573 0.93029,-3.46032 4.4122,-6.60779 8.89196,-8.03786 0.6198,-0.19786 1.35387,-0.35076 1.82919,-0.38101 l 0.79393,-0.0505 0.44025,0.41615 c 0.4068,0.38454 0.44025,0.45936 0.44025,0.98473 0,0.92826 -0.3756,1.24087 -2.03842,1.69656 -1.15912,0.31765 -2.53131,0.86449 -3.26065,1.29942 -2.45183,1.46211 -4.69382,3.6238 -5.84684,5.6374 -0.22861,0.39925 -0.4678,0.76019 -0.53153,0.8021 -0.23081,0.15176 -0.71044,0.0813 -0.8251,-0.12123 z m 51.299478,-0.0327 c -0.08442,-0.12833 -0.335141,-0.53191 -0.557148,-0.89684 -1.336369,-2.19671 -4.11543,-4.67164 -6.53496,-5.81982 -0.3922,-0.18611 -1.37807,-0.54315 -2.19083,-0.79343 -0.81277,-0.25027 -1.59443,-0.5273 -1.73703,-0.61562 -0.54952,-0.34036 -0.73017,-1.29494 -0.35509,-1.87642 0.50203,-0.77828 1.43848,-0.83465 3.42287,-0.20602 4.3323,1.37241 7.926009,4.62533 8.802007,7.96731 0.22466,0.85709 0.261904,2.09612 0.06959,2.31516 -0.213396,0.24306 -0.738545,0.20061 -0.919409,-0.0743 z"
       id="path21"
       inkscape:connector-curvature="0" />
  </g>
</svg>
